<mxfile host="app.diagrams.net" modified="2022-07-16T15:32:43.155Z" agent="5.0 (Windows NT 10.0; Win64; x64) AppleWebKit/537.36 (KHTML, like Gecko) Chrome/103.0.0.0 Safari/537.36" etag="M-EI7NlQu1kS6NH0tUI_" version="20.1.1" type="github">
  <diagram id="aAfQPoBQMi6JrCPyjAyX" name="Page-1">
    <mxGraphModel dx="868" dy="450" grid="1" gridSize="10" guides="1" tooltips="1" connect="1" arrows="1" fold="1" page="1" pageScale="1" pageWidth="827" pageHeight="1169" math="0" shadow="0">
      <root>
        <mxCell id="0" />
        <mxCell id="1" parent="0" />
        <mxCell id="aIY75ANo8Wsx8e-Df4wM-26" style="edgeStyle=orthogonalEdgeStyle;rounded=0;orthogonalLoop=1;jettySize=auto;html=1;entryX=0.5;entryY=0;entryDx=0;entryDy=0;fillColor=#dae8fc;strokeColor=#6c8ebf;" edge="1" parent="1" source="EwMfzWcEn_94j8ixZ7ZM-9" target="aIY75ANo8Wsx8e-Df4wM-14">
          <mxGeometry relative="1" as="geometry" />
        </mxCell>
        <mxCell id="aIY75ANo8Wsx8e-Df4wM-27" value="" style="edgeStyle=orthogonalEdgeStyle;rounded=0;orthogonalLoop=1;jettySize=auto;html=1;fillColor=#dae8fc;strokeColor=#6c8ebf;" edge="1" parent="1" source="EwMfzWcEn_94j8ixZ7ZM-9" target="aIY75ANo8Wsx8e-Df4wM-13">
          <mxGeometry relative="1" as="geometry">
            <Array as="points">
              <mxPoint x="414" y="340" />
              <mxPoint x="414" y="340" />
            </Array>
          </mxGeometry>
        </mxCell>
        <mxCell id="EwMfzWcEn_94j8ixZ7ZM-9" value="Microservices" style="swimlane;startSize=23;fontSize=14;fillColor=#1ba1e2;strokeColor=#006EAF;fillStyle=solid;fontColor=#ffffff;" parent="1" vertex="1">
          <mxGeometry x="140" y="360" width="600" height="310" as="geometry" />
        </mxCell>
        <mxCell id="EwMfzWcEn_94j8ixZ7ZM-1" value="&lt;b&gt;&lt;font style=&quot;font-size: 14px;&quot;&gt;User Profile Service&lt;/font&gt;&lt;/b&gt;" style="rounded=0;whiteSpace=wrap;html=1;fillColor=#dae8fc;strokeColor=#6c8ebf;" parent="EwMfzWcEn_94j8ixZ7ZM-9" vertex="1">
          <mxGeometry x="10" y="40" width="170" height="80" as="geometry" />
        </mxCell>
        <mxCell id="EwMfzWcEn_94j8ixZ7ZM-15" value="&lt;b&gt;&lt;font style=&quot;font-size: 14px;&quot;&gt;Cart Service&lt;/font&gt;&lt;/b&gt;" style="rounded=0;whiteSpace=wrap;html=1;fillColor=#dae8fc;strokeColor=#6c8ebf;" parent="EwMfzWcEn_94j8ixZ7ZM-9" vertex="1">
          <mxGeometry x="210" y="40" width="170" height="80" as="geometry" />
        </mxCell>
        <mxCell id="EwMfzWcEn_94j8ixZ7ZM-14" value="&lt;b&gt;&lt;font style=&quot;font-size: 14px;&quot;&gt;Payment Service&lt;/font&gt;&lt;/b&gt;" style="rounded=0;whiteSpace=wrap;html=1;fillColor=#dae8fc;strokeColor=#6c8ebf;" parent="EwMfzWcEn_94j8ixZ7ZM-9" vertex="1">
          <mxGeometry x="410" y="40" width="170" height="80" as="geometry" />
        </mxCell>
        <mxCell id="EwMfzWcEn_94j8ixZ7ZM-13" value="&lt;font style=&quot;font-size: 14px;&quot;&gt;&lt;b&gt;Inventory Service&lt;/b&gt;&lt;/font&gt;" style="rounded=0;whiteSpace=wrap;html=1;fillColor=#dae8fc;strokeColor=#6c8ebf;" parent="EwMfzWcEn_94j8ixZ7ZM-9" vertex="1">
          <mxGeometry x="10" y="130" width="170" height="80" as="geometry" />
        </mxCell>
        <mxCell id="EwMfzWcEn_94j8ixZ7ZM-12" value="&lt;font style=&quot;font-size: 14px;&quot;&gt;&lt;b&gt;Order Service&lt;/b&gt;&lt;/font&gt;" style="rounded=0;whiteSpace=wrap;html=1;fillColor=#dae8fc;strokeColor=#6c8ebf;" parent="EwMfzWcEn_94j8ixZ7ZM-9" vertex="1">
          <mxGeometry x="210" y="130" width="170" height="80" as="geometry" />
        </mxCell>
        <mxCell id="EwMfzWcEn_94j8ixZ7ZM-11" value="&lt;font style=&quot;font-size: 14px;&quot;&gt;&lt;b&gt;Catalogue Service&lt;/b&gt;&lt;/font&gt;" style="rounded=0;whiteSpace=wrap;html=1;fillColor=#dae8fc;strokeColor=#6c8ebf;" parent="EwMfzWcEn_94j8ixZ7ZM-9" vertex="1">
          <mxGeometry x="410" y="130" width="170" height="80" as="geometry" />
        </mxCell>
        <mxCell id="aIY75ANo8Wsx8e-Df4wM-10" value="&lt;font style=&quot;font-size: 14px;&quot;&gt;&lt;b&gt;Streaming Service&lt;/b&gt;&lt;/font&gt;" style="rounded=0;whiteSpace=wrap;html=1;fillColor=#dae8fc;strokeColor=#6c8ebf;" vertex="1" parent="EwMfzWcEn_94j8ixZ7ZM-9">
          <mxGeometry x="210" y="225" width="170" height="80" as="geometry" />
        </mxCell>
        <mxCell id="aIY75ANo8Wsx8e-Df4wM-22" value="" style="edgeStyle=orthogonalEdgeStyle;rounded=0;orthogonalLoop=1;jettySize=auto;html=1;fillColor=#dae8fc;strokeColor=#6c8ebf;" edge="1" parent="1" source="aIY75ANo8Wsx8e-Df4wM-12" target="aIY75ANo8Wsx8e-Df4wM-13">
          <mxGeometry relative="1" as="geometry">
            <Array as="points">
              <mxPoint x="414" y="180" />
              <mxPoint x="414" y="180" />
            </Array>
          </mxGeometry>
        </mxCell>
        <mxCell id="aIY75ANo8Wsx8e-Df4wM-12" value="&lt;font style=&quot;font-size: 15px;&quot;&gt;&lt;b&gt;Presentation&lt;/b&gt;&lt;/font&gt;" style="rounded=0;whiteSpace=wrap;html=1;fillColor=#dae8fc;strokeColor=#6c8ebf;" vertex="1" parent="1">
          <mxGeometry x="254" y="90" width="320" height="80" as="geometry" />
        </mxCell>
        <mxCell id="aIY75ANo8Wsx8e-Df4wM-25" style="edgeStyle=orthogonalEdgeStyle;rounded=0;orthogonalLoop=1;jettySize=auto;html=1;entryX=0.458;entryY=0.006;entryDx=0;entryDy=0;entryPerimeter=0;fillColor=#dae8fc;strokeColor=#6c8ebf;" edge="1" parent="1" source="aIY75ANo8Wsx8e-Df4wM-13" target="EwMfzWcEn_94j8ixZ7ZM-9">
          <mxGeometry relative="1" as="geometry" />
        </mxCell>
        <mxCell id="aIY75ANo8Wsx8e-Df4wM-28" style="edgeStyle=orthogonalEdgeStyle;rounded=0;orthogonalLoop=1;jettySize=auto;html=1;fillColor=#dae8fc;strokeColor=#6c8ebf;" edge="1" parent="1" source="aIY75ANo8Wsx8e-Df4wM-13">
          <mxGeometry relative="1" as="geometry">
            <mxPoint x="414" y="170" as="targetPoint" />
          </mxGeometry>
        </mxCell>
        <mxCell id="aIY75ANo8Wsx8e-Df4wM-13" value="&lt;font style=&quot;font-size: 14px;&quot;&gt;&lt;b&gt;Web&amp;nbsp;&lt;/b&gt;&lt;/font&gt;" style="rounded=0;whiteSpace=wrap;html=1;fillColor=#dae8fc;strokeColor=#6c8ebf;" vertex="1" parent="1">
          <mxGeometry x="254" y="220" width="320" height="80" as="geometry" />
        </mxCell>
        <mxCell id="aIY75ANo8Wsx8e-Df4wM-29" style="edgeStyle=orthogonalEdgeStyle;rounded=0;orthogonalLoop=1;jettySize=auto;html=1;entryX=0.5;entryY=1;entryDx=0;entryDy=0;fillColor=#dae8fc;strokeColor=#6c8ebf;" edge="1" parent="1" source="aIY75ANo8Wsx8e-Df4wM-14" target="EwMfzWcEn_94j8ixZ7ZM-9">
          <mxGeometry relative="1" as="geometry" />
        </mxCell>
        <mxCell id="aIY75ANo8Wsx8e-Df4wM-14" value="Persistence" style="swimlane;startSize=23;fontSize=14;fillColor=#1ba1e2;strokeColor=#006EAF;fillStyle=solid;fontColor=#ffffff;gradientColor=none;swimlaneFillColor=none;" vertex="1" parent="1">
          <mxGeometry x="140" y="720" width="600" height="170" as="geometry" />
        </mxCell>
        <mxCell id="aIY75ANo8Wsx8e-Df4wM-15" value="&lt;font style=&quot;font-size: 14px;&quot;&gt;&lt;b&gt;Media Storage&lt;/b&gt;&lt;/font&gt;" style="rounded=0;whiteSpace=wrap;html=1;fillColor=#dae8fc;strokeColor=#6c8ebf;" vertex="1" parent="aIY75ANo8Wsx8e-Df4wM-14">
          <mxGeometry x="10" y="40" width="170" height="80" as="geometry" />
        </mxCell>
        <mxCell id="aIY75ANo8Wsx8e-Df4wM-16" value="&lt;font style=&quot;font-size: 14px;&quot;&gt;&lt;b&gt;No SQL DB&lt;/b&gt;&lt;/font&gt;" style="rounded=0;whiteSpace=wrap;html=1;fillColor=#dae8fc;strokeColor=#6c8ebf;" vertex="1" parent="aIY75ANo8Wsx8e-Df4wM-14">
          <mxGeometry x="190" y="40" width="170" height="80" as="geometry" />
        </mxCell>
        <mxCell id="aIY75ANo8Wsx8e-Df4wM-17" value="&lt;font style=&quot;font-size: 14px;&quot;&gt;&lt;b&gt;SQL DB&lt;/b&gt;&lt;/font&gt;" style="rounded=0;whiteSpace=wrap;html=1;fillColor=#dae8fc;strokeColor=#6c8ebf;" vertex="1" parent="aIY75ANo8Wsx8e-Df4wM-14">
          <mxGeometry x="390" y="40" width="170" height="80" as="geometry" />
        </mxCell>
      </root>
    </mxGraphModel>
  </diagram>
</mxfile>
